HIERARCHY
ROOT Hips
{
	OFFSET -14.64140 90.27770 -84.91600
	CHANNELS 6 Xposition Yposition Zposition Zrotation Xrotation Yrotation
	JOINT Spine
	{
		OFFSET 0.00000 13.20850 -1.60436
		CHANNELS 3 Zrotation Xrotation Yrotation
		JOINT Spine1
		{
			OFFSET 0.00000 8.61716 0.00000
			CHANNELS 3 Zrotation Xrotation Yrotation
			JOINT Spine2
			{
				OFFSET 0.00000 8.61717 0.00000
				CHANNELS 3 Zrotation Xrotation Yrotation
				JOINT Spine3
				{
					OFFSET 0.00000 8.61717 0.00000
					CHANNELS 3 Zrotation Xrotation Yrotation
					JOINT Neck
					{
						OFFSET 0.00000 11.07920 1.10792
						CHANNELS 3 Zrotation Xrotation Yrotation
						JOINT Neck1
						{
							OFFSET 0.00000 7.08032 0.00000
							CHANNELS 3 Zrotation Xrotation Yrotation
							JOINT Head
							{
								OFFSET 0.00000 7.08031 0.00000
								CHANNELS 3 Zrotation Xrotation Yrotation
								End site
								{
									OFFSET 0.00000 0.00000 0.00000
								}
							}
						}
					}
					JOINT RightShoulder
					{
						OFFSET -0.01000 7.91373 5.19711
						CHANNELS 3 Zrotation Xrotation Yrotation
						JOINT RightArm
						{
							OFFSET -18.41580 0.00000 0.00000
							CHANNELS 3 Zrotation Xrotation Yrotation
							JOINT RightForeArm
							{
								OFFSET -29.11090 0.00000 0.00000
								CHANNELS 3 Zrotation Xrotation Yrotation
								JOINT RightHand
								{
									OFFSET -24.65040 0.00000 0.00000
									CHANNELS 3 Zrotation Xrotation Yrotation
									JOINT RightHandThumb1
									{
										OFFSET -5.35114 -0.85590 3.97906
										CHANNELS 3 Zrotation Xrotation Yrotation
										JOINT RightHandThumb2
										{
											OFFSET -4.52789 0.00000 0.00000
											CHANNELS 3 Zrotation Xrotation Yrotation
											JOINT RightHandThumb3
											{
												OFFSET -2.46976 0.00000 0.00000
												CHANNELS 3 Zrotation Xrotation Yrotation
												End site
												{
													OFFSET 0.00000 0.00000 0.00000
												}
											}
										}
									}
									JOINT RightHandIndex1
									{
										OFFSET -14.26970 0.00000 2.88139
										CHANNELS 3 Zrotation Xrotation Yrotation
										JOINT RightHandIndex2
										{
											OFFSET -5.48836 0.00000 0.00000
											CHANNELS 3 Zrotation Xrotation Yrotation
											JOINT RightHandIndex3
											{
												OFFSET -3.01859 0.00000 0.00000
												CHANNELS 3 Zrotation Xrotation Yrotation
												End site
												{
													OFFSET 0.00000 0.00000 0.00000
												}
											}
										}
									}
									JOINT RightHandMiddle1
									{
										OFFSET -14.26970 0.00000 -0.09147
										CHANNELS 3 Zrotation Xrotation Yrotation
										JOINT RightHandMiddle2
										{
											OFFSET -6.17441 0.00000 0.00000
											CHANNELS 3 Zrotation Xrotation Yrotation
											JOINT RightHandMiddle3
											{
												OFFSET -3.56743 0.00000 0.00000
												CHANNELS 3 Zrotation Xrotation Yrotation
												End site
												{
													OFFSET 0.00000 0.00000 0.00000
												}
											}
										}
									}
									JOINT RightHandRing1
									{
										OFFSET -12.69180 0.00000 -3.06433
										CHANNELS 3 Zrotation Xrotation Yrotation
										JOINT RightHandRing2
										{
											OFFSET -5.62556 0.00000 0.00000
											CHANNELS 3 Zrotation Xrotation Yrotation
											JOINT RightHandRing3
											{
												OFFSET -3.56744 0.00000 0.00000
												CHANNELS 3 Zrotation Xrotation Yrotation
												End site
												{
													OFFSET 0.00000 0.00000 0.00000
												}
											}
										}
									}
									JOINT RightHandPinky1
									{
										OFFSET -11.11390 0.00000 -6.03719
										CHANNELS 3 Zrotation Xrotation Yrotation
										JOINT RightHandPinky2
										{
											OFFSET -4.52789 0.00000 0.00000
											CHANNELS 3 Zrotation Xrotation Yrotation
											JOINT RightHandPinky3
											{
												OFFSET -2.46976 0.00000 0.00000
												CHANNELS 3 Zrotation Xrotation Yrotation
												End site
												{
													OFFSET 0.00000 0.00000 0.00000
												}
											}
										}
									}
								}
							}
						}
					}
					JOINT LeftShoulder
					{
						OFFSET 0.01000 7.91373 5.19711
						CHANNELS 3 Zrotation Xrotation Yrotation
						JOINT LeftArm
						{
							OFFSET 18.41580 0.00000 0.00000
							CHANNELS 3 Zrotation Xrotation Yrotation
							JOINT LeftForeArm
							{
								OFFSET 29.11090 0.00000 0.00000
								CHANNELS 3 Zrotation Xrotation Yrotation
								JOINT LeftHand
								{
									OFFSET 24.65040 0.00000 0.00000
									CHANNELS 3 Zrotation Xrotation Yrotation
									JOINT LeftHandThumb1
									{
										OFFSET 5.35114 -0.85590 3.97906
										CHANNELS 3 Zrotation Xrotation Yrotation
										JOINT LeftHandThumb2
										{
											OFFSET 4.52789 0.00000 0.00000
											CHANNELS 3 Zrotation Xrotation Yrotation
											JOINT LeftHandThumb3
											{
												OFFSET 2.46977 0.00000 0.00000
												CHANNELS 3 Zrotation Xrotation Yrotation
												End site
												{
													OFFSET 0.00000 0.00000 0.00000
												}
											}
										}
									}
									JOINT LeftHandIndex1
									{
										OFFSET 14.26970 0.00000 2.88139
										CHANNELS 3 Zrotation Xrotation Yrotation
										JOINT LeftHandIndex2
										{
											OFFSET 5.48836 0.00000 0.00000
											CHANNELS 3 Zrotation Xrotation Yrotation
											JOINT LeftHandIndex3
											{
												OFFSET 3.01859 0.00000 0.00000
												CHANNELS 3 Zrotation Xrotation Yrotation
												End site
												{
													OFFSET 0.00000 0.00000 0.00000
												}
											}
										}
									}
									JOINT LeftHandMiddle1
									{
										OFFSET 14.26970 0.00000 -0.09147
										CHANNELS 3 Zrotation Xrotation Yrotation
										JOINT LeftHandMiddle2
										{
											OFFSET 6.17440 0.00000 0.00000
											CHANNELS 3 Zrotation Xrotation Yrotation
											JOINT LeftHandMiddle3
											{
												OFFSET 3.56744 0.00000 0.00000
												CHANNELS 3 Zrotation Xrotation Yrotation
												End site
												{
													OFFSET 0.00000 0.00000 0.00000
												}
											}
										}
									}
									JOINT LeftHandRing1
									{
										OFFSET 12.69180 0.00000 -3.06433
										CHANNELS 3 Zrotation Xrotation Yrotation
										JOINT LeftHandRing2
										{
											OFFSET 5.62556 0.00000 0.00000
											CHANNELS 3 Zrotation Xrotation Yrotation
											JOINT LeftHandRing3
											{
												OFFSET 3.56744 0.00000 0.00000
												CHANNELS 3 Zrotation Xrotation Yrotation
												End site
												{
													OFFSET 0.00000 0.00000 0.00000
												}
											}
										}
									}
									JOINT LeftHandPinky1
									{
										OFFSET 11.11390 0.00000 -6.03719
										CHANNELS 3 Zrotation Xrotation Yrotation
										JOINT LeftHandPinky2
										{
											OFFSET 4.52789 0.00000 0.00000
											CHANNELS 3 Zrotation Xrotation Yrotation
											JOINT LeftHandPinky3
											{
												OFFSET 2.46976 0.00000 0.00000
												CHANNELS 3 Zrotation Xrotation Yrotation
												End site
												{
													OFFSET 0.00000 0.00000 0.00000
												}
											}
										}
									}
								}
							}
						}
					}
					JOINT pCube4
					{
						OFFSET 0.00000 10.91090 1.10792
						CHANNELS 3 Zrotation Xrotation Yrotation
						End site
						{
							OFFSET 0.00000 0.00000 0.00000
						}
					}
				}
			}
		}
	}
	JOINT RightUpLeg
	{
		OFFSET -9.98441 0.00000 0.00000
		CHANNELS 3 Zrotation Xrotation Yrotation
		JOINT RightLeg
		{
			OFFSET 0.00000 -42.11790 0.00000
			CHANNELS 3 Zrotation Xrotation Yrotation
			JOINT RightFoot
			{
				OFFSET 0.00000 -45.00020 -0.00001
				CHANNELS 3 Zrotation Xrotation Yrotation
				JOINT RightForeFoot
				{
					OFFSET 0.00000 -3.74820 0.00000
					CHANNELS 3 Zrotation Xrotation Yrotation
					JOINT RightToeBase
					{
						OFFSET 0.00000 0.06325 14.43120
						CHANNELS 3 Zrotation Xrotation Yrotation
						End site
						{
							OFFSET 0.00000 0.00000 0.00000
						}
					}
				}
			}
		}
	}
	JOINT LeftUpLeg
	{
		OFFSET 9.98441 0.00000 0.00000
		CHANNELS 3 Zrotation Xrotation Yrotation
		JOINT LeftLeg
		{
			OFFSET 0.00000 -42.11800 0.00000
			CHANNELS 3 Zrotation Xrotation Yrotation
			JOINT LeftFoot
			{
				OFFSET 0.00000 -45.00070 0.00000
				CHANNELS 3 Zrotation Xrotation Yrotation
				JOINT LeftForeFoot
				{
					OFFSET 0.00000 -3.74824 0.00000
					CHANNELS 3 Zrotation Xrotation Yrotation
					JOINT LeftToeBase
					{
						OFFSET 0.00000 0.06325 14.43110
						CHANNELS 3 Zrotation Xrotation Yrotation
						End site
						{
							OFFSET 0.00000 0.00000 0.00000
						}
					}
				}
			}
		}
	}
}
MOTION
Frames: 4
Frame Time: 0.050000
0.02423265967848165 -0.006197030103604031 -0.0392866315875621 -0.038037632101485405 -0.027709526020477535 -0.025556302299618736 -3.6003169061975533 7.3057654823571445 -0.6865134917116431 -0.6311585393219383 2.958755672217677 0.4042885405934348 -0.7686174713758145 0.2864143525922406 -1.8179004967891919 -0.3485959297509337 0.3749976861530531 -1.044085765879874 -0.4916372679225176 8.684493234527553 0.3778548931063493 -0.1638108017541157 -0.6237217777597809 -1.4258473146311015 -0.3340188524903399 -14.292460410089012 -0.054996614028178695 4.014590425491822 -0.1662281248258501 -10.450219096466547 70.75305659037379 -7.299633799668888 30.98651382564101 39.34659153039143 15.389374597083924 103.92616255108305 21.019321959381077 -0.033739415959812565 -12.097860957985402 4.560781135047611 -0.16231257941768065 -1.55316491889873 0.04412939039939733 0.036847920653117705 -56.190696915793296 0.0392405429437177 0.0015606315429102322 -56.235748407268176 -38.76325627331429 0.02774024333652089 0.011317358553503291 -0.012106001951316364 0.008468220831961316 -0.03796431942495076 0.02744284604996862 -0.035591779430937255 -0.015019110306335083 -36.65263637298383 0.011334254919531163 -0.047882378959948346 0.025913459815718097 -0.03455220054238956 -0.03188847090593449 0.010983505288134113 0.01974395235863262 0.01753184162915723 -19.738712539751592 0.017233142439595502 -0.030003244347447968 0.04879903247072528 -0.042135112456511074 0.033872802822907645 0.003945302069987053 -0.01777271387648931 0.03084067355615215 24.036971784658885 0.026625128091163328 0.010534037440708521 28.8888645174754 -0.01737374101725478 -0.024785045035134953 28.882742588123705 -0.01232798446298185 0.003857201003975292 -0.8572764826187911 0.4199603355492844 8.88392167592243 -59.688244287487485 16.656557973944583 -37.21597557974418 -25.12802568775784 12.810117088955774 -101.88370813818076 -17.246658952273698 1.1264824882467666 -1.8833083975817477 -0.49817611670856066 0.09113774406151881 -8.169108661182062 0.00246339061073654 0.012549744007022405 44.616026893940656 0.006447986815977978 -0.004812983173312432 44.546263276043064 12.425748430372566 0.009916871197249833 -0.03301330847156571 0.023717501157471378 0.04639556853580886 0.029559770519910527 -0.040756686535121586 0.02940354817756257 -0.02259970848046744 11.148570217996255 0.008751278833629307 0.024072627245275282 -0.0025007751510371786 -0.03386267217569431 0.022105990750737714 0.014896616039339675 -0.0034583579180204435 -0.030828469606111703 4.759147464955116 -0.03544050792027541 0.01516958578611698 0.03594187455653476 0.000682782922145873 0.024580719484706283 -0.030699622467059953 -0.023616476809419997 0.022516513324501927 -5.575532411933473 -0.012001909373165602 0.04964000941680672 -6.709641042788564 0.009192728952074904 -0.005005091181504095 -6.7207000709574825 -0.03390294966520285 -0.048781448438284934 0.028045015925254338 0.033026392095519615 0.043438039953399524 8.082695018456976 3.46072746650897 -19.178045217905453 0.015808264391892538 10.350099458988185 -0.004321411829735163 -5.62535856339369 -15.621005765831912 3.1775799340261157 -0.041415892927795565 0.034204997174906764 0.025739605540277856 -0.008149523934696886 4.70672208061849 0.007071966533687082 12.494274216369117 -8.272099685658423 6.864070686545371 -0.004556144368636648 46.34943884829003 0.0324671009375238 -4.32741987396763 -14.772318824505868 -3.838857069373829 0.011873592796463073 -0.005826311326953588 0.023578456755070726 -0.010836889178585576 -10.756578571143331 0.03351699781120298 
-0.014666410046616968 0.040505327705179395 -0.02001672943997083 0.02352910535209714 0.015518387694680433 0.0030643864274356135 -3.5080947351590575 7.341159335785562 -0.689736083452654 -0.6226445681388728 2.9826587446314123 0.3773040566987804 -0.7273474777521481 0.3036789419750842 -1.9251276173311296 -0.25783635121059156 0.4325010750509959 -1.060103199653398 -0.5532818851290423 8.815897439420432 0.3265304774261619 -0.1502830222688612 -0.6656810248257423 -1.403818001708557 -0.2908374153318955 -14.426824096629884 -0.013680266485919749 4.072734229544811 -0.15114144639264016 -10.415743523516827 70.92857553453096 -6.9376510554394875 31.653631693336365 42.974998519501334 16.247808982354673 102.95658090288819 21.156071197360447 -0.07521555362022253 -12.587974563220572 4.5453918710627335 -0.13811640560387362 -1.6419789892255288 0.04240283064651986 0.04100722187092968 -56.18948763298413 -0.0062930894432574715 0.010754645740412242 -56.21307401175177 -38.76042109716565 -0.002445709346068307 -0.03885810449659426 0.016362415239496754 -0.030118557064783103 0.014470323338324008 0.026031715322837472 -0.011012154018987634 0.02160791973083669 -36.68803136184894 0.033146808936417374 0.00783540997322685 -0.01064532889882396 0.003466164973293259 0.005344870891861839 -0.04554846808539105 -0.00791284328868721 0.032794642140004535 -19.74685423124139 -0.024260461158667736 -0.008104866928662751 -0.04516622034387846 -0.030676163600860777 0.013800187022878987 -0.04534670405280452 0.008443625437652171 -0.016770766244238535 24.103492696015095 0.002253196831829745 0.004019283031085386 28.861005194948326 -0.0019849674097096896 -0.016385944977987243 28.847190644576393 -0.024831466280253338 0.03384560245821088 -0.8655038657243137 0.4280739521983875 8.75500569350891 -58.68985269509108 17.4107608786087 -38.58988132748892 -26.059695715329006 14.104846723760321 -100.58113818456034 -18.571928390705356 1.4155859182100823 -2.0370557326502574 -0.4907031797902391 0.04255735119734655 -8.095833275959789 -0.011253382672265852 -0.04995338553452265 44.52963198706652 -0.043402094677877374 -0.01284535509740691 44.587806224441536 12.493976021398067 -0.028271446948404888 0.01979218687337365 0.018051909173360362 0.029312392003234978 -0.02360152993198243 0.04116477864416388 0.021694600780537025 0.034241508909697654 11.05972281513923 0.03941008508537768 0.019932700959122165 0.02671799830326605 -0.039123181475580096 0.028721327734982847 0.008058570537238545 0.02767141294532546 0.026594668106493653 4.80245326107236 -0.02488836425367532 0.014036380748613695 -0.006118576218248437 -0.04259238979996016 -0.01109394719199094 -0.024746724184309846 -0.025059612781947047 0.019576966852466866 -5.551889482968956 0.03421487128609411 -0.005814936405607095 -6.712563920312247 0.02850942112132023 -0.01565606041793326 -6.770355729762641 -0.019234357413484657 0.03589940935830385 0.005517358739157473 0.004732181203768493 -0.027764823738677464 8.060904431148677 3.5013708234791268 -19.21227510654949 -0.003958663563729835 10.349075497132043 0.047234089390322045 -5.580591184701512 -15.629668606551064 3.170174976199559 0.0067370333318527145 -0.04486978639161528 0.03869668997788888 0.02423469827846736 4.69807341847646 0.005021775282527205 12.441528507648012 -8.21424256910527 6.849402697272162 -0.04408849756635553 46.40238795020746 -0.010651299612477703 -4.328189624402943 -14.761672407631236 -3.8241464313199414 -0.009710382999598735 -0.01136039540677609 0.039635732190915644 -0.011334703329760427 -10.71913692088519 0.010957774476212039 
-0.013625030795949256 0.040115143249693674 0.015968590318150618 -0.017570450227891343 -0.021251161942792703 -0.02095519410406016 -3.5246327742275505 7.368067563413042 -0.7460194830956622 -0.6060803608706462 3.051077787622512 0.3607808531200382 -0.7339820356944321 0.3074927939130478 -2.0223826375966203 -0.08264403950736687 0.42477904536155736 -1.0660887090193745 -0.6011879304931004 8.770734614556567 0.3032328196614202 -0.24853433439168027 -0.7350460602768512 -1.4602179717507986 -0.32914367416485557 -14.480224645105865 0.011014627034994673 4.235554511355603 -0.23511461039530537 -10.52944519718375 70.62524307469221 -5.801000029551497 31.394070566332182 45.06061966337794 16.42662406411369 102.26431858717804 21.192796664667004 -0.054603934714551994 -12.860813990924177 4.547851365726305 -0.15731162200311793 -1.6127240185187721 0.018438672084841234 -0.013176218318139395 -56.21162882262903 -0.020094535767365817 0.03660713639481588 -56.22615263744604 -38.811753064203664 -0.028151634157621643 0.026183543323347654 0.015042754512232246 -0.010360258973680153 -0.048756483515703795 0.021639512530122293 -0.016831635137242302 -0.048016739291244226 -36.66426706540581 0.013815307593864465 0.011811390763360166 -0.019257214032902134 -0.007554725553093305 -0.01674911101226988 0.01688309702449373 0.04187451982003988 -0.005516826949570366 -19.740783834595632 0.006132419947715344 0.007550976723403753 0.0033682425116317214 0.04944081147626931 0.009384880397389935 -0.01774769888651002 -0.008041908746099571 -0.018704408183261405 24.074430695987626 -0.045956220528683395 0.03978054408771239 28.89874834565501 -0.0003148456926890893 0.00737433565873713 28.820853731935237 0.008416086586588151 -0.013153976249752395 -0.8715923678696842 0.37437262766680923 8.774904603170269 -57.5495163355079 18.773501766619216 -39.0645840233536 -25.29961973682928 14.517824447263841 -99.02632723358293 -19.539180995191124 1.6979118116984988 -2.050151211856908 -0.4620301878431215 0.07950550686142362 -8.172473631792533 0.04973761183297451 0.049609919318875165 44.60026821801654 0.0443580481313282 -0.021811879086229453 44.616501888640066 12.431940749986941 -0.04654315504529359 0.029114787807124464 -0.033812330192727225 -0.007665873006165512 0.04216578169151631 -0.0034083039893475164 0.01639698120776154 0.04003626086637769 11.106649003190977 0.031491965350788596 -0.030828125466214256 -0.02905960319228754 -0.01744338256492982 -0.005997379321175868 0.026488260206533505 0.048047642375140275 0.016983708468062724 4.783584656862129 0.02917682839185815 -0.004452406352834188 0.037117900346607516 0.0055209546805591 0.02365933375425769 -0.008082242257232123 0.038954972691639306 0.017343844069229352 -5.5670607663369545 0.029324863304432024 -0.01056527947567925 -6.694559961770386 0.043083466452767616 0.04031900423469603 -6.697276606032711 0.049857509095649094 -0.02211804125031926 0.005946272106451057 -0.043353597870609877 -0.0015742706236535394 8.023267234228657 3.478720349131631 -19.19893696436628 0.005857696289657161 10.373418393720412 0.024473610757850865 -5.616084758337021 -15.681241582398652 3.238264667771934 -0.03111838527621919 0.0020710652191147537 -0.000650267324575069 -0.030335558633770243 4.7253833874723075 -0.020543908505846798 12.47254790908399 -8.281108083765965 6.840016622914431 0.008482304160291639 46.3437534270421 0.019611440962561216 -4.337435794460116 -14.783997452498534 -3.788940243702982 0.0035718244802976293 0.005232659609268118 0.010105287192843183 -0.009052345974222574 -10.732214470333128 0.013812361227583168 
0.04218873838950293 -0.016356764557510586 0.03141311387340229 0.0056099242305634985 -0.03572972953541054 -0.009594904636630354 -3.4207412056013244 7.290504938163545 -0.7634918132345948 -0.6313355145331024 3.06633161749342 0.32005004779203966 -0.7123742264088752 0.44163067472268974 -2.1387102977796566 0.06996191884696998 0.4704957854908421 -1.1092012689713826 -0.6063935990562804 8.790217857799213 0.24401820021578075 -0.22920190689009673 -0.8167943951986698 -1.4818953719602161 -0.3501290202450084 -14.568523453643152 -0.03727348782730149 4.603098703056733 -0.3947128359804456 -10.61662154633936 70.01898754890198 -4.084274147767517 30.03253591925173 47.18822443382427 16.344920077993894 101.80310332968634 21.4617073785502 -0.0024379968807882596 -13.193859177482066 4.478884241792263 -0.1757767896016032 -1.606430778637201 -0.032714277760736266 0.02674575084502704 -56.2156514378469 0.0291654438901053 -0.015641504099599714 -56.18498270219169 -38.725762059057544 -0.007047326567372397 0.03901832432232103 -0.04191079521945943 -0.02568531648076594 0.04385042891957371 0.032726625618682434 -0.016257208383611294 -0.0030837163480238834 -36.65501017042045 0.004582749271265445 -0.012928822487872155 0.0008662733033301063 0.0165193109589457 0.0007093319569984948 -0.0015689578310083795 -0.03898763663474113 0.0009543949679837123 -19.785657493071234 -0.049885439903760764 0.017255947580494514 0.04167621616698485 0.02092430065040393 0.002841025646267174 0.001209624340089623 -0.022701062128910612 -0.005263424302078147 24.09169355200949 -0.04116282127269194 -0.04832484001680717 28.842116314628072 0.0013596125032932205 -0.004958065260700275 28.839721392225062 -0.0225336158654733 0.032096905548344705 -1.1233355231308046 0.349286211392827 8.837341015257115 -56.31882715227718 20.735968636845353 -38.862725023235 -24.193643338803962 14.436659550379217 -98.14047684220584 -20.442288990012383 1.8035485928361028 -2.214742013340596 -0.49498892452115534 0.09701109062678226 -8.105929638480434 -0.031526601138535705 0.015395596005447721 44.57758525593637 -0.025228567097767503 0.007196659364445937 44.558714873304126 12.443505953606426 0.03372520304052472 -0.0036558668907257035 -0.015096613660111842 -0.035676426240754996 -0.01999639396512113 0.021307691544533457 -0.0027798065488338513 0.037810541917583464 11.093246074680444 -0.04999143755389214 -0.012121609774618479 -0.030846113652376276 0.03955440764000774 -0.013049916153045321 0.016580582605227902 0.019656494607263122 -0.01042850453059796 4.749044435661614 0.04583603796757736 0.006850432990547204 -0.006040372631808769 0.0004967632365906572 0.032332827812749154 0.038969956494746605 -0.005884881996523761 0.03495239725873906 -5.59470680009996 0.016762016810229825 -0.026747100266924752 -6.742789206941769 -0.025305031235235163 -0.03498942504143331 -6.689145835114051 0.04849801102436005 0.04328117262232375 -0.04025058009784746 -0.01822284252000047 -0.02314689611664102 7.996871532368617 3.4474569313044627 -19.22868296487157 0.01295699444114832 10.396140605535447 -0.013769042694788597 -5.607273546550648 -15.660241852239093 3.205639404765445 0.019324558154006802 -0.0341444840943983 0.04939556073227418 -0.021713340707250787 4.716465303438626 0.03464152922824895 12.442358903911046 -8.197976678800124 6.869394050901996 -0.049567582097098696 46.3445231695223 -0.013757633123988934 -4.3606624670019665 -14.773530388999047 -3.8014827217061455 0.02623479780945145 0.0023092991230162277 0.025470039959439316 0.002474755414883677 -10.778493971014212 -0.012499338444540167 
